# xmcd
#
# Track frame offsets:
#	150
#	7735
#	45084
#	75454
#	99217
#	111840
#	130603
#	134959
#	155348
#	251414
#	286965
#
# Disc length: 4154 seconds
#
# Revision: 1
# Processed by: cddbd v1.5.2PL0 Copyright (c) Steve Scherf et al.
# Submitted via: audiograbber 1.83.01
#
DISCID=7c10380b
DTITLE=Grateful Dead - 71-07-31A Yale Bowl, New Haven CT
DYEAR=1900
DGENRE=
TTITLE0=Intro
TTITLE1=Truckin'
TTITLE2=Sugaree
TTITLE3=Mr Charlie
TTITLE4=Mama Tried
TTITLE5=Big Railroad Blues
TTITLE6=Crowd and Stage Banter
TTITLE7=Playing In The Band
TTITLE8=Dark Star
TTITLE9=Bird Song
TTITLE10=El Paso
EXTD=
EXTT0=
EXTT1=
EXTT2=
EXTT3=
EXTT4=
EXTT5=
EXTT6=
EXTT7=
EXTT8=
EXTT9=
EXTT10=
PLAYORDER=
